# xmcd
#
# Track frame offsets:
#	150
#	2486
#	22546
#	52631
#	70377
#	85377
#	122101
#	144937
#	160042
#	183770
#	222877
#	228630
#
# Disc length: 3359 seconds
#
# Revision: 0
# Processed by: cddbd v1.5.2PL0 Copyright (c) Steve Scherf et al.
# Submitted via: audiograbber 1.83.01
#
DISCID=8a0d1d0c
DTITLE=Kraftwerk - Der Katalog [CD 8) - Tour De France [remastered 2009]
DYEAR=2003
DGENRE=Electronic
TTITLE0=Prologue
TTITLE1=Tour de France Étape 1
TTITLE2=Tour de France Étape 2
TTITLE3=Tour de France Étape 3
TTITLE4=Chrono
TTITLE5=Vitamin
TTITLE6=Aéro Dynamik
TTITLE7=Titanium
TTITLE8=Elektro Kardiogramm
TTITLE9=La Forme
TTITLE10=Régéneration
TTITLE11=Tour de France
EXTD=
EXTT0=
EXTT1=
EXTT2=
EXTT3=
EXTT4=
EXTT5=
EXTT6=
EXTT7=
EXTT8=
EXTT9=
EXTT10=
EXTT11=
PLAYORDER=
